<svg fill="none" xmlns="http://www.w3.org/2000/svg">

<symbol id="touch" viewBox="0 0 64 64">
   <g clip-path="url(#clip0)">
   <path d="M20 45.3333C19.264 45.3333 18.6667 44.736 18.6667 44V13.3333C18.6667 10.392 21.0587 8 24 8C26.9413 8 29.3333 10.392 29.3333 13.3333V41.3333C29.3333 42.0693 28.736 42.6667 28 42.6667C27.264 42.6667 26.6667 42.0693 26.6667 41.3333V13.3333C26.6667 11.8613 25.472 10.6667 24 10.6667C22.528 10.6667 21.3334 11.8613 21.3334 13.3333V44C21.3334 44.736 20.736 45.3333 20 45.3333Z" fill="#FF2E63"/>
   <path d="M36 42.6667C35.264 42.6667 34.6667 42.0693 34.6667 41.3333V29.3333C34.6667 27.8613 33.472 26.6667 32 26.6667C30.528 26.6667 29.3333 27.8613 29.3333 29.3333C29.3333 30.0693 28.736 30.6667 28 30.6667C27.264 30.6667 26.6667 30.0693 26.6667 29.3333C26.6667 26.392 29.0587 24 32 24C34.9413 24 37.3333 26.392 37.3333 29.3333V41.3333C37.3333 42.0693 36.736 42.6667 36 42.6667Z" fill="#FF2E63"/>
   <path d="M44 42.6666C43.264 42.6666 42.6667 42.0693 42.6667 41.3333V32C42.6667 30.528 41.472 29.3333 40 29.3333C38.528 29.3333 37.3333 30.528 37.3333 32C37.3333 32.736 36.736 33.3333 36 33.3333C35.264 33.3333 34.6667 32.736 34.6667 32C34.6667 29.0586 37.0587 26.6666 40 26.6666C42.9413 26.6666 45.3333 29.0586 45.3333 32V41.3333C45.3333 42.0693 44.736 42.6666 44 42.6666Z" fill="#FF2E63"/>
   <path d="M41.3334 64H25.9014C21.4134 64 16.784 62.0454 13.512 58.7707C9.90135 55.1574 7.99468 50.0027 8.00268 43.8694C8.00535 38.7974 12.248 34.6667 17.456 34.6667H20C20.736 34.6667 21.3333 35.264 21.3333 36C21.3333 36.736 20.736 37.3334 20 37.3334H17.456C13.7173 37.3334 10.672 40.2694 10.6693 43.872C10.664 49.36 12.256 53.736 15.3973 56.8854C18.6747 60.1654 22.9707 61.3334 25.9014 61.3334H41.3334C46.48 61.3334 50.6667 57.1467 50.6667 52V34.6667C50.6667 33.1947 49.472 32 48 32C46.528 32 45.3334 33.1947 45.3334 34.6667C45.3334 35.4027 44.736 36 44 36C43.264 36 42.6667 35.4027 42.6667 34.6667C42.6667 31.7254 45.0587 29.3334 48 29.3334C50.9414 29.3334 53.3334 31.7254 53.3334 34.6667V52C53.3334 58.616 47.9494 64 41.3334 64Z" fill="#FF2E63"/>
   <path d="M33.3333 22.1867C33.0373 22.1867 32.736 22.088 32.4907 21.8853C31.92 21.4187 31.8373 20.5813 32.304 20.0107C33.848 18.1173 34.6667 15.808 34.6667 13.3333C34.6667 7.45067 29.8827 2.66667 24 2.66667C18.1173 2.66667 13.3333 7.45067 13.3333 13.3333C13.3333 15.808 14.152 18.1173 15.6987 20.0107C16.1653 20.5813 16.0827 21.4187 15.512 21.8853C14.944 22.3547 14.104 22.2693 13.6373 21.6987C11.6933 19.3227 10.6667 16.4293 10.6667 13.3333C10.6667 5.98133 16.648 0 24 0C31.352 0 37.3333 5.98133 37.3333 13.3333C37.3333 16.4293 36.3067 19.3227 34.3653 21.6987C34.1013 22.0213 33.72 22.1867 33.3333 22.1867Z" fill="#346CD9"/>
   </g>
   <defs>
   <clipPath id="clip0">
   <rect width="64" height="64" fill="white"/>
   </clipPath>
   </defs>
</symbol>

<symbol id="movie" viewBox="0 0 64 64">
   <g clip-path="url(#clip0)">
   <path d="M16.4023 27.1044C16.7314 27.1044 17.0537 26.9706 17.2861 26.7382C17.5185 26.5053 17.6523 26.183 17.6523 25.8544C17.6523 25.5253 17.5185 25.2031 17.2861 24.9706C17.0537 24.7382 16.7314 24.6044 16.4023 24.6044C16.0722 24.6044 15.7514 24.7382 15.5185 24.9706C15.2861 25.2031 15.1523 25.5253 15.1523 25.8544C15.1523 26.183 15.2861 26.5053 15.5185 26.7382C15.7514 26.9706 16.0737 27.1044 16.4023 27.1044Z" fill="#346CD9"/>
   <path d="M34.3085 25.4492C34.0751 25.2167 33.7538 25.0829 33.4238 25.0829C33.0952 25.0829 32.7724 25.2167 32.54 25.4492C32.3076 25.6816 32.1738 26.0043 32.1738 26.3329C32.1738 26.6616 32.3076 26.9843 32.54 27.2167C32.7724 27.4492 33.0952 27.5829 33.4238 27.5829C33.7538 27.5829 34.0751 27.4492 34.3085 27.2167C34.541 26.9843 34.6738 26.663 34.6738 26.3329C34.6738 26.0043 34.541 25.6816 34.3085 25.4492Z" fill="#346CD9"/>
   <path d="M37.7997 23.2079C38.1288 23.2079 38.4511 23.0742 38.6835 22.8417C38.9159 22.6093 39.0488 22.2866 39.0488 21.9579C39.0488 21.6293 38.9159 21.3066 38.6835 21.0742C38.4511 20.8417 38.1288 20.7079 37.7997 20.7079C37.4702 20.7079 37.1474 20.8417 36.915 21.0742C36.6826 21.3066 36.5488 21.6293 36.5488 21.9579C36.5488 22.2866 36.6826 22.6093 36.915 22.8417C37.1474 23.0742 37.4702 23.2079 37.7997 23.2079Z" fill="#346CD9"/>
   <path d="M60.2499 30.7495H56.7621L62.9017 24.6098C63.6097 23.9013 63.9999 22.9594 63.9999 21.958C63.9999 20.9565 63.6097 20.0146 62.9017 19.3066L57.3329 13.7378C56.8451 13.25 56.0536 13.25 55.5653 13.7378C54.8573 14.4463 53.9154 14.8364 52.914 14.8364C51.912 14.8364 50.9706 14.4463 50.2621 13.7378C49.5536 13.0298 49.164 12.0879 49.164 11.0864C49.164 10.0845 49.5541 9.14305 50.2621 8.43455C50.4965 8.20018 50.6283 7.88231 50.6283 7.55077C50.6283 7.21922 50.4965 6.90135 50.2621 6.66698L44.6938 1.09863C43.9853 0.390136 43.0439 0 42.0419 0C41.0405 0 40.0986 0.390136 39.3905 1.09863L18.7451 21.7436C18.2568 22.2314 18.2568 23.0229 18.7451 23.5112C19.2334 23.9995 20.0249 23.9995 20.5131 23.5112L41.1581 2.86621C41.3945 2.62988 41.7079 2.5 42.0419 2.5C42.3759 2.5 42.6899 2.62988 42.9257 2.86621L47.6986 7.63866C47.0253 8.65233 46.664 9.84178 46.664 11.0864C46.664 12.7558 47.3139 14.3252 48.4945 15.5058C49.6752 16.686 51.2445 17.3364 52.914 17.3364C54.1586 17.3364 55.3475 16.9751 56.3617 16.3017L61.1342 21.0742C61.6215 21.5615 61.6215 22.3545 61.1342 22.8418L53.2265 30.7495H47.7465L51.8534 26.6425C52.3412 26.1542 52.3412 25.3627 51.8534 24.875L39.1254 12.1469C38.6371 11.6587 37.8456 11.6587 37.3573 12.1469L18.7548 30.7495H3.74999C1.68213 30.7495 0 32.4316 0 34.4994V42.3744C0 43.0644 0.559569 43.6244 1.25 43.6244C3.31786 43.6244 4.99999 45.3066 4.99999 47.3744C4.99999 49.4418 3.31786 51.1244 1.25 51.1244C0.559569 51.1244 0 51.684 0 52.3744V60.2494C0 62.3168 1.68213 63.9994 3.74999 63.9994H60.2499C62.3178 63.9994 63.9999 62.3168 63.9999 60.2494V52.3744C63.9999 51.684 63.4403 51.1244 62.7499 51.1244C60.682 51.1244 58.9999 49.4418 58.9999 47.3744C58.9999 45.3066 60.682 43.6244 62.7499 43.6244C63.4403 43.6244 63.9999 43.0644 63.9999 42.3744V34.4994C63.9999 32.4316 62.3178 30.7495 60.2499 30.7495ZM38.2411 14.7983L49.2016 25.7587L44.2109 30.7495H39.2612L42.9257 27.0844C43.414 26.5966 43.414 25.8051 42.9257 25.3168C42.4379 24.8286 41.6464 24.8286 41.1581 25.3168L35.7255 30.749H22.2905L38.2411 14.7983ZM61.4999 41.2499C58.6508 41.8305 56.4999 44.3559 56.4999 47.3744C56.4999 50.3925 58.6508 52.9179 61.4999 53.4989V60.2494C61.4999 60.9384 60.9393 61.4994 60.2499 61.4994H3.74999C3.06054 61.4994 2.5 60.9384 2.5 60.2494V53.4989C5.34911 52.9179 7.49999 50.3925 7.49999 47.3744C7.49999 44.3559 5.34911 41.831 2.5 41.2499V34.4994C2.5 33.81 3.06054 33.2494 3.74999 33.2494H60.2499C60.9393 33.2494 61.4999 33.81 61.4999 34.4994V41.2499Z" fill="#FF2E63"/>
   <path d="M26.6962 45.2582C26.9287 45.0253 27.0625 44.7031 27.0625 44.3744C27.0625 44.0453 26.9287 43.7231 26.6962 43.4907C26.4638 43.2582 26.1411 43.1245 25.8125 43.1245C25.4838 43.1245 25.1611 43.2582 24.9287 43.4907C24.6962 43.7231 24.5625 44.0453 24.5625 44.3744C24.5625 44.7031 24.6962 45.0253 24.9287 45.2582C25.1611 45.4907 25.4838 45.6244 25.8125 45.6244C26.1411 45.6244 26.4638 45.4907 26.6962 45.2582Z" fill="#346CD9"/>
   <path d="M39.0712 45.2582C39.3036 45.0253 39.4374 44.7031 39.4374 44.3744C39.4374 44.0453 39.3036 43.7231 39.0712 43.4907C38.8388 43.2582 38.516 43.1245 38.1874 43.1245C37.8588 43.1245 37.5361 43.2582 37.3036 43.4907C37.0712 43.7231 36.9374 44.0453 36.9374 44.3744C36.9374 44.7031 37.0712 45.0253 37.3036 45.2582C37.5361 45.4907 37.8588 45.6244 38.1874 45.6244C38.516 45.6244 38.8388 45.4907 39.0712 45.2582Z" fill="#346CD9"/>
   <path d="M32.8837 45.2582C33.1161 45.0253 33.2499 44.7031 33.2499 44.3744C33.2499 44.0453 33.1161 43.7231 32.8837 43.4907C32.6513 43.2582 32.3285 43.1245 31.9999 43.1245C31.6713 43.1245 31.3486 43.2582 31.1161 43.4907C30.8837 43.7231 30.7499 44.0453 30.7499 44.3744C30.7499 44.7031 30.8837 45.0253 31.1161 45.2582C31.3486 45.4907 31.6713 45.6244 31.9999 45.6244C32.3285 45.6244 32.6513 45.4907 32.8837 45.2582Z" fill="#346CD9"/>
   <path d="M19.625 45.6244C19.9536 45.6244 20.2763 45.4907 20.5088 45.2582C20.7412 45.0253 20.875 44.7031 20.875 44.3744C20.875 44.0453 20.7412 43.7231 20.5088 43.4907C20.2763 43.2582 19.9536 43.1245 19.625 43.1245C19.2964 43.1245 18.9736 43.2582 18.7412 43.4907C18.5088 43.7231 18.375 44.0453 18.375 44.3744C18.375 44.7031 18.5088 45.0253 18.7412 45.2582C18.9736 45.4907 19.2964 45.6244 19.625 45.6244Z" fill="#346CD9"/>
   <path d="M45.2587 45.2582C45.4911 45.0253 45.6249 44.7031 45.6249 44.3744C45.6249 44.0453 45.4911 43.7231 45.2587 43.4907C45.0263 43.2582 44.7035 43.1245 44.3749 43.1245C44.0463 43.1245 43.7235 43.2582 43.4911 43.4907C43.2587 43.7231 43.1249 44.0453 43.1249 44.3744C43.1249 44.7031 43.2587 45.0253 43.4911 45.2582C43.7235 45.4907 44.0463 45.6244 44.3749 45.6244C44.7035 45.6244 45.0263 45.4907 45.2587 45.2582Z" fill="#346CD9"/>
   <path d="M19.625 51.6244H44.3749C45.0653 51.6244 45.6249 51.0643 45.6249 50.3744C45.6249 49.684 45.0653 49.1244 44.3749 49.1244H19.625C18.9345 49.1244 18.375 49.684 18.375 50.3744C18.375 51.0643 18.9345 51.6244 19.625 51.6244Z" fill="#FF2E63"/>
   <path d="M24.165 55.1244C23.8364 55.1244 23.5136 55.2582 23.2812 55.4906C23.0488 55.723 22.915 56.0453 22.915 56.3744C22.915 56.703 23.0488 57.0253 23.2812 57.2582C23.5136 57.4906 23.8364 57.6244 24.165 57.6244C24.4951 57.6244 24.8164 57.4906 25.0488 57.2582C25.2827 57.0253 25.415 56.703 25.415 56.3744C25.415 56.0453 25.2827 55.723 25.0488 55.4906C24.8164 55.2582 24.4951 55.1244 24.165 55.1244Z" fill="#346CD9"/>
   <path d="M50.9999 37.1245H13C12.3096 37.1245 11.75 37.684 11.75 38.3744V56.3744C11.75 57.0644 12.3096 57.6244 13 57.6244H18.207C18.8974 57.6244 19.457 57.0644 19.457 56.3744C19.457 55.684 18.8974 55.1244 18.207 55.1244H14.25V39.6244H49.7499V55.1244H29.457C28.7666 55.1244 28.207 55.684 28.207 56.3744C28.207 57.0644 28.7666 57.6244 29.457 57.6244H50.9999C51.6903 57.6244 52.2499 57.0644 52.2499 56.3744V38.3744C52.2499 37.684 51.6903 37.1245 50.9999 37.1245Z" fill="#FF2E63"/>
   </g>
   <defs>
   <clipPath id="clip0">
   <rect width="64" height="63.9999" fill="white"/>
   </clipPath>
   </defs>
</symbol>

<symbol id="payment" viewBox="0 0 64 64">
   <path d="M23.5811 31.9984H16V34.665H48V31.9984H40.4566C42.7689 30.3698 44.6058 28.0741 45.6665 25.3318H52.8L57.1986 30.2238C57.4517 30.5049 57.8124 30.6654 58.1906 30.6651H62.6666V27.9985H58.784L54.3814 23.1065C54.1283 22.8254 53.7676 22.6649 53.3894 22.6651H44C43.2636 22.6651 42.6666 22.0681 42.6666 21.3318C42.6666 19.1226 44.4575 17.3318 46.6666 17.3318H48C48.7364 17.3318 49.3334 17.9288 49.3334 18.6651C49.3334 19.4015 49.9304 19.9985 50.6668 19.9985H58.6668V17.3319H51.7721C51.205 15.7349 49.6948 14.6673 48.0001 14.6653H46.6668C46.3376 14.6656 46.0145 14.6909 45.6981 14.7373C45.1286 13.2603 44.3237 11.887 43.3182 10.668L46.0508 9.18926L51.2094 12.9893L52.7907 10.8373L46.9494 6.53589C46.5338 6.23026 45.9791 6.19189 45.5254 6.43726L34.7574 12.265C34.4841 12.4134 34.1781 12.4911 33.8671 12.4913C32.8363 12.4915 32.0002 11.656 32 10.625C31.9943 9.98889 32.3155 9.39426 32.8506 9.05039L46.144 2.73839L62.3534 6.63176L62.9748 4.03976L46.3081 0.0397627C46.0121 -0.0332373 45.7 -0.00073725 45.4255 0.131763L34.1437 5.48776C33.444 5.38514 32.7376 5.33251 32.0296 5.33176C23.9295 5.32364 17.3564 11.8835 17.3482 19.9836C17.3431 24.9498 19.8073 29.3413 23.5811 31.9984ZM20.252 17.6105C21.2711 12.5914 25.2859 8.94589 30.0549 8.15676C29.5799 8.88526 29.3146 9.74714 29.3178 10.6474C29.3186 10.8886 29.3386 11.1251 29.3757 11.356C27.7586 12.2721 26.6666 14.0073 26.6666 15.9985C26.6666 18.944 29.0545 21.3319 32 21.3319C33.4727 21.3319 34.6666 22.5258 34.6666 23.9985C34.6666 25.4713 33.4727 26.665 32 26.665C30.5273 26.665 29.3334 25.4711 29.3334 23.9984H26.6667C26.6667 26.4835 28.3665 28.5716 30.6667 29.1636V30.665H33.3334V29.1638C35.6336 28.5716 37.3334 26.4836 37.3334 23.9985C37.3334 21.053 34.9455 18.6651 32 18.6651C30.5273 18.6651 29.3334 17.4713 29.3334 15.9985C29.3334 15.0545 29.8253 14.2271 30.5653 13.7531C31.3948 14.6261 32.5674 15.1696 33.8667 15.1651C34.136 15.1648 34.4036 15.1393 34.6668 15.0916V17.3318H37.3334V13.9066L40.9193 11.966C41.8915 13.0464 42.6595 14.2943 43.1871 15.6483C41.2775 16.8209 40.0029 18.927 40 21.3316C40 23.1371 41.1965 24.6626 42.8395 25.16C40.8806 29.3024 36.681 32.0138 32 31.9983C31.202 31.9975 30.4061 31.917 29.6241 31.7583C23.1292 30.4396 18.9333 24.1054 20.252 17.6105Z" fill="#346CD9"/>
   <path d="M61.3334 33.3317V49.3317C61.3334 50.0681 60.7364 50.6651 60 50.6651H4C3.26363 50.6651 2.66663 50.0681 2.66663 49.3317V11.9984C2.66663 11.262 3.26363 10.665 4 10.665H17.3334V7.99835H4C1.79087 7.99835 0 9.78923 0 11.9984V49.3317C0 51.5409 1.79087 53.3317 4 53.3317H21.8419L17.8419 61.3317H14.6666V63.9984H49.3332V61.3317H46.1571L42.1571 53.3317H60C62.2091 53.3317 64 51.5409 64 49.3317V33.3317H61.3334ZM43.1758 61.3317H20.8232L24.8232 53.3317H39.1759L43.1758 61.3317Z" fill="#FF2E63"/>
   <path d="M5.33338 41.3318V46.6652C5.33338 47.4015 5.93038 47.9985 6.66676 47.9985H12V45.3319H8.00001V41.3319H5.33338V41.3318Z" fill="#FF2E63"/>
   <path d="M17.3332 45.3318H14.6666V47.9984H17.3332V45.3318Z" fill="#FF2E63"/>
   <path d="M56 45.3318H52V47.9984H57.3334C58.0697 47.9984 58.6668 47.4014 58.6668 46.665V41.3317H56V45.3318Z" fill="#FF2E63"/>
   <path d="M49.3332 45.3318H46.6666V47.9984H49.3332V45.3318Z" fill="#FF2E63"/>
   <path d="M14.6666 13.3317H9.33338C7.12426 13.3317 5.33338 15.1226 5.33338 17.3317V38.665H8.00001V17.3317C8.00001 16.5954 8.59701 15.9984 9.33338 15.9984H14.6668V13.3317H14.6666Z" fill="#FF2E63"/>
   <path d="M44 45.3318H20V47.9984H44V45.3318Z" fill="#FF2E63"/>
</symbol>

<symbol id="winner" viewBox="0 0 64 64">
   <g clip-path="url(#clip0)">
   <path d="M58.5519 19.7996L44.6454 17.3362L37.7613 4.67303C37.1468 3.54377 36.2211 2.62639 35.0843 2.02014C31.8899 0.316258 27.9049 1.52889 26.2007 4.72403L19.5611 17.188L17.0677 17.6513C16.389 17.7776 15.941 18.43 16.0671 19.1087C16.1932 19.7875 16.8461 20.235 17.5245 20.1093L19.8338 19.6802L21.5196 22.0006C19.4515 23.7081 17.8126 25.9171 16.7882 28.4387L3.18715 24.0195C3.3484 23.7794 3.53566 23.5542 3.74903 23.3488C4.36091 22.7603 5.12604 22.3827 5.96179 22.2572C5.97604 22.2551 5.99041 22.2527 6.00466 22.25L6.46254 22.1647C7.14129 22.0385 7.58917 21.386 7.46279 20.7072C7.33642 20.0283 6.68354 19.5805 6.00529 19.707L5.56779 19.7883C4.22541 19.9947 2.99765 20.6026 2.0159 21.547C0.75077 22.7638 0.035267 24.4007 0.00126682 26.156C-0.0327333 27.9112 0.618644 29.5747 1.83665 30.8408L11.6454 41.0143L9.82518 54.8915C9.5433 56.3104 9.7293 57.7476 10.3642 59.0512C11.5027 61.3894 13.8522 62.7516 16.2932 62.7516C17.2592 62.7516 18.2393 62.5384 19.1647 62.0878L31.8553 55.9105L44.8746 62.1128C46.0276 62.6631 47.3182 62.8599 48.6071 62.6815C52.198 62.1849 54.7151 58.8595 54.2183 55.2667L52.2628 41.2735L61.9397 31.0665C62.9774 30.0868 63.6553 28.8252 63.9013 27.416C64.5255 23.8401 62.1244 20.4232 58.5519 19.7996ZM60.6359 23.7758L46.8391 28.2587C45.8773 25.9705 44.4061 23.9475 42.5683 22.3316L44.3863 19.8293L58.1189 22.2618C59.1566 22.443 60.0347 23.0035 60.6359 23.7758ZM49.8118 41.7975L51.742 55.611C51.8847 56.6425 51.6255 57.6384 51.0853 58.441L42.5772 46.7306C44.4059 45.1201 45.8713 43.1064 46.8317 40.8293L49.8118 41.7975ZM35.5651 5.86753L42.3594 18.3658L40.5703 20.8283C38.3795 19.4297 35.833 18.5412 33.0993 18.3325V3.90102C33.3744 3.97877 33.6454 4.08602 33.9078 4.2259C34.612 4.60152 35.1853 5.1694 35.5651 5.86753ZM21.8521 18.2047L28.4069 5.90003C28.8966 4.9819 29.691 4.32852 30.5993 3.99702V18.3326C28.0447 18.528 25.6542 19.3176 23.5644 20.5616L21.8521 18.2047ZM31.8504 20.785C39.4322 20.785 45.6004 26.9532 45.6004 34.535C45.6004 42.1168 39.4322 48.2851 31.8504 48.2851C24.2686 48.2851 18.1003 42.1168 18.1003 34.535C18.1003 26.9532 24.2686 20.785 31.8504 20.785ZM13.0664 58.6841C12.8931 58.4624 12.7398 58.2197 12.6118 57.9567C12.2138 57.1394 12.1002 56.2376 12.2832 55.3491C12.2894 55.3195 12.2944 55.2895 12.2983 55.2595L14.0997 41.525L16.7953 40.649C17.8187 43.1597 19.4516 45.3593 21.5105 47.0618L13.0664 58.6841ZM3.63741 29.1067C2.93465 28.3762 2.53665 27.4312 2.50278 26.4257L16.0291 30.8208C15.749 32.0141 15.6003 33.2575 15.6003 34.535C15.6003 35.8193 15.7507 37.0689 16.0337 38.2679L13.3202 39.1497L3.63741 29.1067ZM18.0702 59.8399C17.1211 60.3021 16.0788 60.3619 15.1378 60.0864L23.5542 48.5023C25.6466 49.7498 28.0407 50.5416 30.5994 50.7373V53.7413L18.0702 59.8399ZM48.2646 60.205C47.4621 60.3164 46.6617 60.1957 45.9506 59.8561L33.0993 53.734V50.7376C35.8373 50.5286 38.3874 49.6377 40.5804 48.2353L49.1203 59.9896C48.8488 60.0901 48.5629 60.1637 48.2646 60.205ZM61.4384 26.9859C61.2845 27.8682 60.8577 28.6566 60.2049 29.266C60.1862 29.2835 60.1681 29.3014 60.1505 29.32L50.5773 39.4175L47.6208 38.4569C47.9334 37.2004 48.1004 35.8869 48.1004 34.535C48.1004 33.1899 47.9351 31.8828 47.6254 30.6319L61.4959 26.1251C61.5069 26.408 61.489 26.696 61.4384 26.9859Z" fill="#FF2E63"/>
   <path d="M31.8503 45.7848C38.0537 45.7848 43.1004 40.7381 43.1004 34.5348C43.1004 28.3316 38.0537 23.2849 31.8503 23.2849C25.647 23.2849 20.6003 28.3316 20.6003 34.5348C20.6003 40.7381 25.647 45.7848 31.8503 45.7848ZM31.8503 25.7848C36.6752 25.7848 40.6004 29.7101 40.6004 34.5348C40.6004 39.3596 36.6752 43.2848 31.8503 43.2848C27.0255 43.2848 23.1003 39.3596 23.1003 34.5348C23.1003 29.7101 27.0255 25.7848 31.8503 25.7848Z" fill="#346CD9"/>
   <path d="M30.4644 38.2848C29.7741 38.2848 29.2144 38.8446 29.2144 39.5348C29.2144 40.2251 29.7741 40.7848 30.4644 40.7848H33.2361C33.9264 40.7848 34.4861 40.2251 34.4861 39.5348C34.4861 38.8446 33.9264 38.2848 33.2361 38.2848H33.1003V29.5349C33.1003 29.0884 32.862 28.6757 32.4753 28.4524C32.0885 28.2291 31.612 28.2291 31.2253 28.4524L29.8394 29.2526C29.2415 29.5978 29.0366 30.3623 29.3819 30.9601C29.6374 31.4026 30.122 31.6298 30.6003 31.5779V38.2847H30.4644V38.2848Z" fill="#346CD9"/>
   <path d="M11.7654 21.158C12.4556 21.158 13.0154 20.5983 13.0154 19.908C13.0154 19.2178 12.4556 18.658 11.7654 18.658H11.7644C11.0741 18.658 10.5149 19.2178 10.5149 19.908C10.5149 20.5983 11.0751 21.158 11.7654 21.158Z" fill="#FF2E63"/>
   </g>
   <defs>
   <clipPath id="clip0">
   <rect width="64" height="64" fill="white"/>
   </clipPath>
   </defs>
</symbol>


</svg>
